solid humanoid_face
  facet normal 6.77576913e-01 -3.55727879e-01 6.43698068e-01
    outer loop
      vertex 1.00000000e-02 -4.00000000e-02 5.00000000e-02
      vertex 1.20000000e-02 0.00000000e+00 7.00000000e-02
      vertex 0.00000000e+00 -5.00000000e-02 5.50000000e-02
    endloop
  endfacet
  facet normal 9.33031563e-01 -1.97140540e-01 3.00977923e-01
    outer loop
      vertex 1.00000000e-02 -4.00000000e-02 5.00000000e-02
      vertex 3.20000000e-02 0.00000000e+00 8.00000000e-03
      vertex 1.20000000e-02 0.00000000e+00 7.00000000e-02
    endloop
  endfacet
  facet normal 9.29557430e-01 -3.21167314e-01 1.81037402e-01
    outer loop
      vertex 1.00000000e-02 -4.00000000e-02 5.00000000e-02
      vertex 1.60000000e-02 -4.80000000e-02 5.00000000e-03
      vertex 3.20000000e-02 0.00000000e+00 8.00000000e-03
    endloop
  endfacet
  facet normal 9.33031563e-01 1.97140540e-01 3.00977923e-01
    outer loop
      vertex 1.00000000e-02 4.00000000e-02 5.00000000e-02
      vertex 1.20000000e-02 0.00000000e+00 7.00000000e-02
      vertex 3.20000000e-02 0.00000000e+00 8.00000000e-03
    endloop
  endfacet
  facet normal 9.36023718e-01 -3.00565073e-01 -1.83085324e-01
    outer loop
      vertex 1.20000000e-02 -3.00000000e-02 -4.50000000e-02
      vertex 3.20000000e-02 0.00000000e+00 8.00000000e-03
      vertex 1.60000000e-02 -4.80000000e-02 5.00000000e-03
    endloop
  endfacet
  facet normal 7.77145101e-01 -4.59113414e-01 -4.30418825e-01
    outer loop
      vertex 1.20000000e-02 -3.00000000e-02 -4.50000000e-02
      vertex 0.00000000e+00 -5.50000000e-02 -4.00000000e-02
      vertex 0.00000000e+00 -2.50000000e-02 -7.20000000e-02
    endloop
  endfacet
  facet normal 8.57530414e-01 -4.58335221e-01 -2.33603113e-01
    outer loop
      vertex 1.20000000e-02 -3.00000000e-02 -4.50000000e-02
      vertex 1.60000000e-02 -4.80000000e-02 5.00000000e-03
      vertex 0.00000000e+00 -5.50000000e-02 -4.00000000e-02
    endloop
  endfacet
  facet normal 9.29557430e-01 3.21167314e-01 1.81037402e-01
    outer loop
      vertex 1.60000000e-02 4.80000000e-02 5.00000000e-03
      vertex 1.00000000e-02 4.00000000e-02 5.00000000e-02
      vertex 3.20000000e-02 0.00000000e+00 8.00000000e-03
    endloop
  endfacet
  facet normal 7.96998180e-01 5.67354637e-01 2.07129470e-01
    outer loop
      vertex 1.60000000e-02 4.80000000e-02 5.00000000e-03
      vertex 0.00000000e+00 6.50000000e-02 2.00000000e-02
      vertex 1.00000000e-02 4.00000000e-02 5.00000000e-02
    endloop
  endfacet
  facet normal 7.44783522e-01 6.13351136e-01 2.62864773e-01
    outer loop
      vertex 0.00000000e+00 5.00000000e-02 5.50000000e-02
      vertex 1.00000000e-02 4.00000000e-02 5.00000000e-02
      vertex 0.00000000e+00 6.50000000e-02 2.00000000e-02
    endloop
  endfacet
  facet normal 6.77576913e-01 3.55727879e-01 6.43698068e-01
    outer loop
      vertex 0.00000000e+00 5.00000000e-02 5.50000000e-02
      vertex 1.20000000e-02 0.00000000e+00 7.00000000e-02
      vertex 1.00000000e-02 4.00000000e-02 5.00000000e-02
    endloop
  endfacet
  facet normal -7.80868809e-01 -0.00000000e+00 6.24695048e-01
    outer loop
      vertex 0.00000000e+00 5.00000000e-02 5.50000000e-02
      vertex 0.00000000e+00 -5.00000000e-02 5.50000000e-02
      vertex 1.20000000e-02 0.00000000e+00 7.00000000e-02
    endloop
  endfacet
  facet normal 6.66456356e-01 -7.35400117e-01 -1.22566686e-01
    outer loop
      vertex 0.00000000e+00 -6.50000000e-02 2.00000000e-02
      vertex 0.00000000e+00 -5.50000000e-02 -4.00000000e-02
      vertex 1.60000000e-02 -4.80000000e-02 5.00000000e-03
    endloop
  endfacet
  facet normal 7.44783522e-01 -6.13351136e-01 2.62864773e-01
    outer loop
      vertex 0.00000000e+00 -6.50000000e-02 2.00000000e-02
      vertex 1.00000000e-02 -4.00000000e-02 5.00000000e-02
      vertex 0.00000000e+00 -5.00000000e-02 5.50000000e-02
    endloop
  endfacet
  facet normal 7.96998180e-01 -5.67354637e-01 2.07129470e-01
    outer loop
      vertex 0.00000000e+00 -6.50000000e-02 2.00000000e-02
      vertex 1.60000000e-02 -4.80000000e-02 5.00000000e-03
      vertex 1.00000000e-02 -4.00000000e-02 5.00000000e-02
    endloop
  endfacet
  facet normal 1.96116135e-01 -0.00000000e+00 -9.80580676e-01
    outer loop
      vertex 1.00000000e-02 0.00000000e+00 -7.00000000e-02
      vertex 0.00000000e+00 -2.50000000e-02 -7.20000000e-02
      vertex 0.00000000e+00 2.50000000e-02 -7.20000000e-02
    endloop
  endfacet
  facet normal 8.48177063e-01 -3.04600814e-01 -4.33375142e-01
    outer loop
      vertex 1.00000000e-02 0.00000000e+00 -7.00000000e-02
      vertex 1.20000000e-02 -3.00000000e-02 -4.50000000e-02
      vertex 0.00000000e+00 -2.50000000e-02 -7.20000000e-02
    endloop
  endfacet
  facet normal 9.50055655e-01 -1.59966636e-01 -2.67964415e-01
    outer loop
      vertex 1.00000000e-02 0.00000000e+00 -7.00000000e-02
      vertex 3.20000000e-02 0.00000000e+00 8.00000000e-03
      vertex 1.20000000e-02 -3.00000000e-02 -4.50000000e-02
    endloop
  endfacet
  facet normal 6.66456356e-01 7.35400117e-01 -1.22566686e-01
    outer loop
      vertex 0.00000000e+00 5.50000000e-02 -4.00000000e-02
      vertex 0.00000000e+00 6.50000000e-02 2.00000000e-02
      vertex 1.60000000e-02 4.80000000e-02 5.00000000e-03
    endloop
  endfacet
  facet normal 7.77145101e-01 4.59113414e-01 -4.30418825e-01
    outer loop
      vertex 1.20000000e-02 3.00000000e-02 -4.50000000e-02
      vertex 0.00000000e+00 2.50000000e-02 -7.20000000e-02
      vertex 0.00000000e+00 5.50000000e-02 -4.00000000e-02
    endloop
  endfacet
  facet normal 8.48177063e-01 3.04600814e-01 -4.33375142e-01
    outer loop
      vertex 1.20000000e-02 3.00000000e-02 -4.50000000e-02
      vertex 1.00000000e-02 0.00000000e+00 -7.00000000e-02
      vertex 0.00000000e+00 2.50000000e-02 -7.20000000e-02
    endloop
  endfacet
  facet normal 8.57530414e-01 4.58335221e-01 -2.33603113e-01
    outer loop
      vertex 1.20000000e-02 3.00000000e-02 -4.50000000e-02
      vertex 0.00000000e+00 5.50000000e-02 -4.00000000e-02
      vertex 1.60000000e-02 4.80000000e-02 5.00000000e-03
    endloop
  endfacet
  facet normal 9.36023718e-01 3.00565073e-01 -1.83085324e-01
    outer loop
      vertex 1.20000000e-02 3.00000000e-02 -4.50000000e-02
      vertex 1.60000000e-02 4.80000000e-02 5.00000000e-03
      vertex 3.20000000e-02 0.00000000e+00 8.00000000e-03
    endloop
  endfacet
  facet normal 9.50055655e-01 1.59966636e-01 -2.67964415e-01
    outer loop
      vertex 1.20000000e-02 3.00000000e-02 -4.50000000e-02
      vertex 3.20000000e-02 0.00000000e+00 8.00000000e-03
      vertex 1.00000000e-02 0.00000000e+00 -7.00000000e-02
    endloop
  endfacet
  facet normal -1.00000000e+00 0.00000000e+00 0.00000000e+00
    outer loop
      vertex 0.00000000e+00 5.50000000e-02 -4.00000000e-02
      vertex 0.00000000e+00 -6.50000000e-02 2.00000000e-02
      vertex 0.00000000e+00 -5.00000000e-02 5.50000000e-02
    endloop
  endfacet
  facet normal -1.00000000e+00 -0.00000000e+00 -0.00000000e+00
    outer loop
      vertex 0.00000000e+00 5.50000000e-02 -4.00000000e-02
      vertex 0.00000000e+00 -5.00000000e-02 5.50000000e-02
      vertex 0.00000000e+00 5.00000000e-02 5.50000000e-02
    endloop
  endfacet
  facet normal -1.00000000e+00 0.00000000e+00 0.00000000e+00
    outer loop
      vertex 0.00000000e+00 5.50000000e-02 -4.00000000e-02
      vertex 0.00000000e+00 2.50000000e-02 -7.20000000e-02
      vertex 0.00000000e+00 -2.50000000e-02 -7.20000000e-02
    endloop
  endfacet
  facet normal -1.00000000e+00 -0.00000000e+00 -0.00000000e+00
    outer loop
      vertex 0.00000000e+00 5.50000000e-02 -4.00000000e-02
      vertex 0.00000000e+00 -2.50000000e-02 -7.20000000e-02
      vertex 0.00000000e+00 -5.50000000e-02 -4.00000000e-02
    endloop
  endfacet
  facet normal -1.00000000e+00 0.00000000e+00 0.00000000e+00
    outer loop
      vertex 0.00000000e+00 5.50000000e-02 -4.00000000e-02
      vertex 0.00000000e+00 5.00000000e-02 5.50000000e-02
      vertex 0.00000000e+00 6.50000000e-02 2.00000000e-02
    endloop
  endfacet
  facet normal -1.00000000e+00 -0.00000000e+00 -0.00000000e+00
    outer loop
      vertex 0.00000000e+00 5.50000000e-02 -4.00000000e-02
      vertex 0.00000000e+00 -5.50000000e-02 -4.00000000e-02
      vertex 0.00000000e+00 -6.50000000e-02 2.00000000e-02
    endloop
  endfacet
endsolid humanoid_face
